<svg width="215" height="26" viewBox="0 0 215 26" fill="none" xmlns="http://www.w3.org/2000/svg">
<path d="M19.4567 0C23.5481 0 25.5932 1.11054 26.3376 1.48005C26.8027 1.75843 26.7092 2.12794 26.7092 2.12794L26.3171 3.84532C26.2849 3.98056 26.2605 4.11767 26.2442 4.25589C26.1518 4.44115 25.9659 4.44115 25.7791 4.25589L24.9404 3.7592C23.9139 3.18741 22.7006 2.68371 21.0378 2.68371C18.5275 2.68371 17.2247 4.53428 17.8756 7.21701L18.3271 8.92235C18.8468 10.9635 19.3511 13.0087 19.8401 15.0578L20.0152 15.8219C21.1302 20.4483 17.969 26 9.41468 26C4.67244 26 1.6971 24.2416 0.673534 23.4094C0.116022 22.9468 -0.0698159 22.6684 0.0226163 22.391L0.302832 21.4737C0.491588 20.8749 0.71537 20.212 0.766938 20.263C0.766938 19.8925 0.952773 19.8004 1.13862 19.9857L1.56672 20.3982C2.68855 21.4397 5.0626 23.3163 8.20527 23.3163C12.2042 23.3163 11.925 20.0778 11.925 19.6152C11.925 18.3204 10.2515 11.9355 9.78637 10.2702C8.48456 4.90379 11.7391 0 19.4567 0ZM64.7399 0C68.8313 0 70.8763 1.11054 71.6203 1.48005C72.0858 1.75843 71.9923 2.12794 71.9923 2.12794L71.6014 3.84532C71.5685 3.98056 71.5445 4.11767 71.5281 4.25589C71.4359 4.44115 71.2496 4.44115 71.0639 4.25589C69.8544 3.51587 68.4605 2.68371 66.322 2.68371C63.8115 2.68371 62.5087 4.53428 63.1597 7.21701L63.4635 8.34255C64.0187 10.4926 65.0753 14.7855 65.2982 15.8229C66.4142 20.4483 63.2532 26 54.6986 26C49.9564 26 47.1669 24.3347 46.1443 23.5015C45.6793 23.116 45.473 22.8597 45.47 22.6233L45.9099 20.4233C45.9244 20.3582 45.9371 20.3091 45.9448 20.2801C46.0519 19.9857 46.3302 19.8935 46.516 20.0778L47.2496 20.7347C48.4609 21.7762 50.5888 23.3163 53.4892 23.3163C57.4882 23.3163 57.2089 20.0778 57.2089 19.6152C57.2089 18.3204 55.5354 11.9355 55.0703 10.2702C53.7675 4.90379 57.0221 0 64.7399 0ZM47.1659 0.277384C47.3897 0.277384 47.3742 0.455631 47.4072 0.526729L47.4452 0.554768L42.6095 25.3521C42.6095 25.4913 42.557 25.5254 42.4928 25.5343L33.7759 25.5373C33.4976 25.5373 33.4976 25.3521 33.4976 25.26L34.5066 19.9777C34.5122 19.9498 34.5168 19.9218 34.5202 19.8936L34.4959 19.8284L34.4278 19.8004H27.2667L27.1782 19.8245L27.0809 19.8936L22.8038 25.3521C22.8038 25.4222 22.7522 25.4913 22.6082 25.5223L22.433 25.5373H19.4558C19.3176 25.5373 19.2826 25.4853 19.3127 25.3811L19.3633 25.26L39.355 0.462641L39.4445 0.39755C39.5276 0.349053 39.618 0.315207 39.712 0.297412L39.9134 0.277384H47.1659ZM36.7513 7.58751L36.6588 7.67962L29.2195 17.2099V17.3029H34.8919L36.7513 7.67962L36.7931 7.61156L36.7513 7.58751Z" fill="#0002BE"/>
<path d="M83 3H92.406V5.68501H86.3309V9.08738H92.008V11.7109H86.3309V15.3182H92.7202V18.0237H83V3Z" fill="#0002BE"/>
<path d="M94.5722 7.3657H97.5679V8.55448C98.1824 8.11722 98.755 7.77562 99.2857 7.52967C99.8164 7.27005 100.396 7.14024 101.024 7.14024C101.625 7.14024 102.156 7.28371 102.617 7.57066C103.077 7.84394 103.385 8.2402 103.538 8.75944C104.265 8.21287 104.914 7.80978 105.487 7.55016C106.059 7.27688 106.674 7.14024 107.33 7.14024C108.35 7.14024 109.062 7.46135 109.467 8.10356C109.886 8.74578 110.095 9.55196 110.095 10.5221V18.0237H107.121V10.891C107.121 10.5221 107.051 10.2078 106.911 9.94822C106.771 9.6886 106.52 9.55879 106.157 9.55879C105.57 9.55879 104.795 9.92089 103.832 10.6451V18.0237H100.836V11.014C100.836 10.0439 100.522 9.55879 99.8932 9.55879C99.3067 9.55879 98.5316 9.90723 97.5679 10.6041V18.0237H94.5722V7.3657Z" fill="#0002BE"/>
<path d="M112.247 7.3657H115.117V8.411C115.536 8.04207 115.969 7.74146 116.416 7.50917C116.877 7.26322 117.457 7.14024 118.155 7.14024C119.091 7.14024 119.88 7.39986 120.522 7.91909C121.165 8.42467 121.639 9.10104 121.947 9.94822C122.268 10.7954 122.428 11.7177 122.428 12.7152C122.428 13.7674 122.254 14.7102 121.905 15.5437C121.57 16.3772 121.074 17.0399 120.417 17.5318C119.775 18.0101 119.014 18.2492 118.134 18.2492C117.45 18.2492 116.884 18.133 116.437 17.9008C116.004 17.6685 115.599 17.3883 115.222 17.0604V22H112.247V7.3657ZM117.233 15.8511C117.945 15.8511 118.476 15.5437 118.825 14.9288C119.174 14.3003 119.349 13.5419 119.349 12.6537C119.349 11.8475 119.188 11.1233 118.867 10.4811C118.546 9.83891 118.029 9.5178 117.317 9.5178C116.605 9.5178 115.906 9.85257 115.222 10.5221V14.9903C115.501 15.2362 115.795 15.4412 116.102 15.6052C116.423 15.7691 116.8 15.8511 117.233 15.8511Z" fill="#0002BE"/>
<path d="M124.074 3H127.07V18.0237H124.074V3Z" fill="#0002BE"/>
<path d="M133.937 18.2492C132.792 18.2492 131.828 18.0101 131.046 17.5318C130.264 17.0399 129.678 16.3772 129.287 15.5437C128.896 14.6965 128.7 13.7469 128.7 12.6947C128.7 11.6289 128.889 10.6793 129.266 9.84574C129.657 9.01223 130.243 8.35635 131.025 7.8781C131.821 7.38619 132.792 7.14024 133.937 7.14024C135.096 7.14024 136.067 7.39302 136.849 7.8986C137.631 8.39051 138.211 9.05322 138.588 9.88673C138.965 10.7202 139.154 11.6562 139.154 12.6947C139.154 13.7605 138.958 14.717 138.567 15.5642C138.176 16.3977 137.589 17.0536 136.807 17.5318C136.025 18.0101 135.069 18.2492 133.937 18.2492ZM133.916 15.9741C134.754 15.9741 135.32 15.6257 135.613 14.9288C135.92 14.2183 136.074 13.4736 136.074 12.6947C136.074 11.9022 135.92 11.1575 135.613 10.4606C135.32 9.76375 134.761 9.41532 133.937 9.41532C133.141 9.41532 132.583 9.75692 132.261 10.4401C131.94 11.1097 131.78 11.8612 131.78 12.6947C131.78 13.5419 131.94 14.3003 132.261 14.9698C132.583 15.6393 133.134 15.9741 133.916 15.9741Z" fill="#0002BE"/>
<path d="M141.607 22C141.188 22 140.643 21.9795 139.973 21.9385V19.6839C140.406 19.7522 140.811 19.7864 141.188 19.7864C141.76 19.7864 142.186 19.6839 142.466 19.479C142.759 19.274 143.024 18.8777 143.262 18.2902L139.617 7.3657H142.591L144.665 14.027L146.718 7.3657H149.651L146.404 17.2039C146.027 18.3517 145.657 19.2535 145.294 19.9094C144.945 20.5653 144.477 21.0777 143.89 21.4466C143.304 21.8155 142.543 22 141.607 22Z" fill="#0002BE"/>
<path d="M155.941 18.2492C153.874 18.2492 152.393 17.7095 151.5 16.63C150.62 15.5369 150.18 14.2183 150.18 12.6742C150.18 11.5674 150.389 10.5973 150.808 9.76375C151.241 8.93024 151.849 8.28803 152.631 7.83711C153.427 7.37253 154.342 7.14024 155.375 7.14024C156.828 7.14024 157.994 7.59115 158.874 8.49299C159.753 9.38116 160.193 10.6451 160.193 12.2848V13.3711H153.238C153.406 15.1474 154.411 16.0356 156.255 16.0356C156.939 16.0356 157.533 15.9468 158.036 15.7691C158.552 15.5915 159.09 15.3387 159.649 15.0108V17.4498C159.16 17.6821 158.636 17.8734 158.078 18.0237C157.533 18.174 156.821 18.2492 155.941 18.2492ZM157.428 11.5674C157.275 10.0097 156.604 9.23085 155.417 9.23085C154.789 9.23085 154.293 9.44265 153.93 9.86623C153.581 10.2762 153.364 10.8432 153.28 11.5674H157.428Z" fill="#0002BE"/>
<path d="M167.336 18.2492C165.269 18.2492 163.788 17.7095 162.895 16.63C162.015 15.5369 161.575 14.2183 161.575 12.6742C161.575 11.5674 161.784 10.5973 162.203 9.76375C162.636 8.93024 163.244 8.28803 164.026 7.83711C164.822 7.37253 165.737 7.14024 166.77 7.14024C168.223 7.14024 169.389 7.59115 170.269 8.49299C171.148 9.38116 171.588 10.6451 171.588 12.2848V13.3711H164.633C164.801 15.1474 165.806 16.0356 167.65 16.0356C168.334 16.0356 168.928 15.9468 169.431 15.7691C169.947 15.5915 170.485 15.3387 171.044 15.0108V17.4498C170.555 17.6821 170.031 17.8734 169.473 18.0237C168.928 18.174 168.216 18.2492 167.336 18.2492ZM168.823 11.5674C168.669 10.0097 167.999 9.23085 166.812 9.23085C166.184 9.23085 165.688 9.44265 165.325 9.86623C164.976 10.2762 164.759 10.8432 164.675 11.5674H168.823Z" fill="#0002BE"/>
<path d="M178.007 3H181.338V8.80043H186.931V3H190.262V18.0237H186.931V11.6494H181.338V18.0237H178.007V3Z" fill="#0002BE"/>
<path d="M195.865 18.2492C194.706 18.2492 193.917 17.9008 193.498 17.2039C193.093 16.507 192.89 15.7213 192.89 14.8468V7.3657H195.886V14.3959C195.886 14.7785 195.949 15.1064 196.074 15.3797C196.2 15.653 196.5 15.7896 196.975 15.7896C197.394 15.7896 197.813 15.694 198.232 15.5027C198.651 15.2977 199.07 15.0586 199.489 14.7853V7.3657H202.485V18.0237H199.489V16.835C198.846 17.2722 198.253 17.6206 197.708 17.8803C197.164 18.1262 196.549 18.2492 195.865 18.2492Z" fill="#0002BE"/>
<path d="M210.685 18.2492C209.944 18.2492 209.33 18.1194 208.841 17.8598C208.366 17.5865 207.933 17.2585 207.542 16.8759L207.249 18.0237H204.819V3H207.794V8.30852C208.171 7.96692 208.576 7.6868 209.009 7.46818C209.456 7.24955 210.021 7.14024 210.706 7.14024C211.655 7.14024 212.451 7.40669 213.094 7.93959C213.736 8.45883 214.211 9.14203 214.518 9.98921C214.839 10.8364 215 11.7382 215 12.6947C215 13.7605 214.818 14.717 214.455 15.5642C214.106 16.3977 213.603 17.0536 212.947 17.5318C212.291 18.0101 211.536 18.2492 210.685 18.2492ZM209.826 15.8511C210.538 15.8511 211.062 15.5369 211.397 14.9083C211.746 14.2798 211.921 13.5419 211.921 12.6947C211.921 11.8065 211.746 11.055 211.397 10.4401C211.048 9.82524 210.524 9.5178 209.826 9.5178C209.113 9.5178 208.436 9.81158 207.794 10.3991V14.9288C208.045 15.2021 208.352 15.4275 208.715 15.6052C209.078 15.7691 209.449 15.8511 209.826 15.8511Z" fill="#0002BE"/>
</svg>
