<svg width="72" height="26" viewBox="0 0 72 26" fill="none" xmlns="http://www.w3.org/2000/svg">
<path d="M19.4567 0C23.5481 0 25.5932 1.11054 26.3376 1.48005C26.8027 1.75843 26.7092 2.12794 26.7092 2.12794L26.3171 3.84532C26.2849 3.98056 26.2605 4.11767 26.2442 4.25589C26.1518 4.44115 25.9659 4.44115 25.7791 4.25589L24.9404 3.7592C23.9139 3.18741 22.7006 2.68371 21.0378 2.68371C18.5275 2.68371 17.2247 4.53428 17.8756 7.21701L18.3271 8.92235C18.8468 10.9635 19.3511 13.0087 19.8401 15.0578L20.0152 15.8219C21.1302 20.4483 17.969 26 9.41468 26C4.67244 26 1.6971 24.2416 0.673534 23.4094C0.116022 22.9468 -0.0698159 22.6684 0.0226163 22.391L0.302832 21.4737C0.491588 20.8749 0.71537 20.212 0.766938 20.263C0.766938 19.8925 0.952773 19.8004 1.13862 19.9857L1.56672 20.3982C2.68855 21.4397 5.0626 23.3163 8.20527 23.3163C12.2042 23.3163 11.925 20.0778 11.925 19.6152C11.925 18.3204 10.2515 11.9355 9.78637 10.2702C8.48456 4.90379 11.7391 0 19.4567 0ZM64.7399 0C68.8313 0 70.8763 1.11054 71.6203 1.48005C72.0858 1.75843 71.9923 2.12794 71.9923 2.12794L71.6014 3.84532C71.5685 3.98056 71.5445 4.11767 71.5281 4.25589C71.4359 4.44115 71.2496 4.44115 71.0639 4.25589C69.8544 3.51587 68.4605 2.68371 66.322 2.68371C63.8115 2.68371 62.5087 4.53428 63.1597 7.21701L63.4635 8.34255C64.0187 10.4926 65.0753 14.7855 65.2982 15.8229C66.4142 20.4483 63.2532 26 54.6986 26C49.9564 26 47.1669 24.3347 46.1443 23.5015C45.6793 23.116 45.473 22.8597 45.47 22.6233L45.9099 20.4233C45.9244 20.3582 45.9371 20.3091 45.9448 20.2801C46.0519 19.9857 46.3302 19.8935 46.516 20.0778L47.2496 20.7347C48.4609 21.7762 50.5888 23.3163 53.4892 23.3163C57.4882 23.3163 57.2089 20.0778 57.2089 19.6152C57.2089 18.3204 55.5354 11.9355 55.0703 10.2702C53.7675 4.90379 57.0221 0 64.7399 0ZM47.1659 0.277384C47.3897 0.277384 47.3742 0.455631 47.4072 0.526729L47.4452 0.554768L42.6095 25.3521C42.6095 25.4913 42.557 25.5254 42.4928 25.5343L33.7759 25.5373C33.4976 25.5373 33.4976 25.3521 33.4976 25.26L34.5066 19.9777C34.5122 19.9498 34.5168 19.9218 34.5202 19.8936L34.4959 19.8284L34.4278 19.8004H27.2667L27.1782 19.8245L27.0809 19.8936L22.8038 25.3521C22.8038 25.4222 22.7522 25.4913 22.6082 25.5223L22.433 25.5373H19.4558C19.3176 25.5373 19.2826 25.4853 19.3127 25.3811L19.3633 25.26L39.355 0.462641L39.4445 0.39755C39.5276 0.349053 39.618 0.315207 39.712 0.297412L39.9134 0.277384H47.1659ZM36.7513 7.58751L36.6588 7.67962L29.2195 17.2099V17.3029H34.8919L36.7513 7.67962L36.7931 7.61156L36.7513 7.58751Z" fill="#0002BE"/>
</svg>
