<svg xmlns="http://www.w3.org/2000/svg" width="201" height="41" viewBox="0 0 201 41" fill="none"><title>SkyTeam alliance member</title><g clip-path="url(#clip0_9729_2911)"><path d="M34.3434 8.98682L34.3278 9.00154C37.2291 11.9192 39.137 15.8544 39.4477 20.2746C40.1329 30.0553 32.7595 38.5325 22.9848 39.2181C18.3894 39.5398 14.0827 38.0787 10.7342 35.4287L10.7158 35.4487C14.1908 38.6846 18.9453 40.5315 24.0561 40.1739C33.8317 39.4908 41.205 31.0089 40.5201 21.2365C40.1746 16.2949 37.8353 11.9657 34.3434 8.98682Z" fill="#0B1761"/><path d="M2.89205 29.1609C2.32699 29.4763 2.20193 29.9508 2.49205 30.6799C2.75596 31.3452 3.17527 31.6367 3.62308 31.4523C3.98217 31.3158 4.04148 31.0036 3.89205 30.2018L3.82998 29.8933C3.68607 29.1052 3.65757 28.7664 3.7532 28.4248C3.84561 28.0454 4.06355 27.7986 4.39872 27.6639C5.20148 27.3448 5.95917 27.8418 6.40928 28.9687C6.89848 30.1861 6.63686 31.1071 5.68331 31.502L5.44607 30.9048C6.10859 30.6206 6.27734 29.999 5.91962 29.114C5.63134 28.3921 5.17114 28.0708 4.68838 28.2671C4.29617 28.4188 4.20652 28.7839 4.35045 29.6046L4.40469 29.9508L4.45755 30.2542C4.56286 30.8592 4.57297 31.0758 4.51686 31.337C4.43734 31.6611 4.22952 31.8979 3.89757 32.0289C3.14538 32.3319 2.41802 31.8878 2.01205 30.8717C1.57205 29.7664 1.80791 28.9494 2.65481 28.5701L2.89205 29.1609Z" fill="#0B1761"/><path d="M2.38965 22.7521L5.08344 20.4863L5.09954 21.3217L2.81862 23.2109L3.55747 24.0256L5.16068 23.9925L5.17357 24.6505L0.599307 24.7484L0.584594 24.0932L2.38229 24.0527H2.63057L2.86551 24.05L2.71195 23.8872L2.55471 23.7268L0.529881 21.5396L0.507812 20.6698L2.38965 22.7521Z" fill="#0B1761"/><path d="M4.41562 15.6699L6.17838 16.2883L5.96366 16.9071L4.19952 16.2883L1.03906 17.2405L1.30297 16.4869L3.26573 15.9393L3.50849 15.8722C3.60596 15.8414 3.66895 15.8294 3.8409 15.7922C3.68642 15.6083 3.64964 15.5688 3.4901 15.3421L2.27906 13.7039L2.52963 12.9844L4.41562 15.6699Z" fill="#0B1761"/><path d="M7.51247 7.26533L6.54509 8.45109L9.4306 10.8138L8.73867 11.6598L5.85178 9.29843L4.88764 10.4773L4.2334 9.93798L6.85636 6.7334L7.51247 7.26533Z" fill="#0B1761"/><path d="M13.6885 2.92976L11.3805 4.28058L11.8706 5.12517L13.9915 3.88472L14.3869 4.56241L12.266 5.79872L12.8356 6.77527L15.1887 5.39458L15.6186 6.12655L12.3156 8.05575L10.0039 4.10265L13.2618 2.19873L13.6885 2.92976Z" fill="#0B1761"/><path d="M19.9286 2.35079C19.6775 1.93195 19.5805 1.74252 19.4366 1.41838C19.398 1.74528 19.3538 1.98712 19.2412 2.45792L19.0518 3.33195L20.3833 3.11769L19.9286 2.35079ZM22.5479 4.70573L21.3497 4.78897L20.758 3.79676L18.9125 4.09379L18.6541 5.21793L17.5166 5.51124L18.7162 0.508497L19.8453 0.330566L22.5479 4.70573Z" fill="#0B1761"/><path d="M29.8963 6.17245L28.9354 5.8088L29.3036 4.44556C29.3409 4.28925 29.4007 4.06856 29.4811 3.78763C29.5565 3.50258 29.6246 3.27913 29.6738 3.11407C29.7326 2.92971 29.7883 2.7412 29.8512 2.5412L29.9598 2.21661C29.6894 2.68235 29.5809 2.84097 29.3335 3.21476C29.2296 3.38074 29.1312 3.52051 29.0526 3.63454L27.7519 5.4557L26.9202 5.2359L26.6581 3.04879C26.6398 2.93614 26.6319 2.77982 26.6172 2.55959C26.5988 2.27178 26.585 2.05385 26.5777 1.9035C26.5722 1.78166 26.5722 1.59867 26.574 1.34718L26.4595 1.9035C26.3257 2.50442 26.2636 2.76465 26.0821 3.48419L25.7018 4.96004L24.6885 4.80097L25.8347 0.32373L27.3749 0.620742L27.591 2.7412C27.6457 3.23683 27.6568 3.65293 27.637 4.2428C27.8076 3.90259 27.8705 3.79407 28.0696 3.48419C28.2021 3.27592 28.3165 3.1012 28.4223 2.94166L29.6269 1.21523L31.0857 1.71086L29.8963 6.17245Z" fill="#0B1761"/><path d="M29.7924 20.937C31.1119 20.0459 32.2122 19.5701 32.894 19.5949C33.2972 19.6068 33.78 19.7296 33.78 20.2266C33.78 20.7406 33.294 21.1696 32.3377 21.5121C31.5 21.8128 30.2108 21.8878 28.8071 21.7319C29.1938 21.3839 29.5193 21.1177 29.7924 20.937ZM11.2228 22.5595C10.4053 22.5043 10.0039 22.1737 10.0039 21.5425C10.0039 21.4592 10.0595 19.4574 14.649 19.2284C15.1717 19.1999 15.7552 19.182 16.6466 19.2822C16.609 19.2854 16.1266 19.7296 16.1266 19.7296L15.8398 19.9908C14.734 20.9944 12.8825 22.6749 11.2228 22.5595ZM21.151 14.9871C20.597 15.474 19.4959 16.5278 18.4352 17.5471L17.2301 18.7006C16.249 18.5236 15.277 18.4377 14.2788 18.4377C12.0512 18.4377 10.0071 19.0523 9.07513 20.0027C8.72203 20.3673 8.54365 20.7618 8.55468 21.1751C8.57585 22.2565 9.81079 22.7985 10.1892 22.9415C12.169 23.6763 13.8287 23.4648 15.5735 22.2409C16.5386 21.5673 17.6972 20.4868 18.6016 19.617C19.3073 19.7756 20.1064 19.9871 20.9666 20.2418L21.7584 20.4712C20.7331 21.4813 19.6774 22.5475 18.7 23.4073L18.6228 23.4749C17.2641 24.6717 16.282 25.5383 14.8609 25.857C13.8627 26.0772 13.1533 25.8666 12.9202 25.7254C12.8981 25.7278 12.8673 25.7682 12.8673 25.7682C13.689 26.4468 14.4673 26.8312 15.8057 26.7144C17.0807 26.6036 18.5533 25.8013 20.0581 24.3903L22.0903 22.3967L23.5156 20.982C23.5156 20.9889 26.3947 21.8275 26.3947 21.8275C26.4172 21.8312 26.449 21.8395 26.449 21.8395C26.4172 21.8395 24.6646 23.5728 24.6646 23.5728L23.1354 25.0951C21.568 26.6183 20.7147 27.4054 19.7956 28.0551C18.2857 29.131 16.9883 29.6901 15.8462 29.7668C15.2563 29.8073 14.4006 29.7632 13.6889 29.3503C13.6563 29.3415 13.6149 29.382 13.6149 29.382C14.3873 30.0422 15.3363 30.8349 16.968 30.7926C18.8145 30.7347 20.4503 29.8496 22.9961 27.513C24.1588 26.4468 25.3096 25.2547 26.3257 24.2009L28.2209 22.2827C29.4669 22.5595 30.5763 22.673 31.8108 22.6487C33.6025 22.611 35.1345 21.754 35.1524 20.771C35.17 20.0487 34.5722 19.6592 34.2163 19.4303C33.9239 19.2367 33.1198 18.7898 32.0131 18.7898C30.6683 18.7898 29.2646 19.3843 27.8421 20.554L26.8959 21.3894C26.9069 21.3839 26.5505 21.2951 26.5505 21.2951L23.917 20.554C24.6935 19.8317 25.3538 19.2101 25.9505 18.6799C27.3924 17.3972 28.9841 16.8703 29.9174 16.8123C30.5952 16.7668 31.7791 16.8248 32.266 17.1705C32.288 17.1673 32.3202 17.119 32.3202 17.119C31.0236 16.0137 29.9028 15.8625 28.9781 15.8625C28.066 15.8625 26.603 16.1508 24.814 17.537C24.0857 18.1043 23.1354 19.0523 22.1423 20.0514C22.1423 20.0459 20.8103 19.6436 20.8103 19.6436L20.4885 19.5425L19.0876 19.1177C19.1188 19.1177 19.8871 18.3645 19.8871 18.3645C20.8315 17.4404 21.7202 16.5678 22.4154 15.9797C24.9441 13.8579 26.534 13.5788 27.6374 13.5701C28.8494 13.5668 29.8122 13.8179 30.4977 14.314C30.5179 14.3103 30.5501 14.2652 30.5501 14.2652C29.1317 12.9848 28.1115 12.5742 26.3519 12.5567C24.8062 12.5471 22.9579 13.4082 21.151 14.9871Z" fill="#0B1761"/><path d="M32.4872 2.72353C32.5759 2.77227 32.723 2.87617 32.786 2.76169C32.827 2.68721 32.7364 2.61916 32.6605 2.57733L32.4674 2.47112L32.3653 2.65641L32.4872 2.72353ZM32.5842 3.34192L32.4637 3.27572L32.4311 2.82468L32.3088 2.75755L32.1263 3.08951L32.0256 3.03434L32.4223 2.31434L32.7354 2.48629C32.8656 2.55802 32.9722 2.6633 32.8867 2.81824C32.809 2.9594 32.6803 2.95755 32.5506 2.89043L32.5842 3.34192ZM33.027 3.12169C33.1971 2.81181 33.0757 2.42514 32.7741 2.25916C32.4715 2.09227 32.0789 2.19617 31.9088 2.5056C31.7382 2.81549 31.8601 3.20307 32.1621 3.36951C32.4633 3.53549 32.8559 3.43112 33.027 3.12169ZM31.7754 2.51664C31.9396 2.13365 32.3773 1.95893 32.764 2.12445C33.1506 2.29043 33.3244 2.72767 33.1603 3.11066C32.9957 3.49411 32.5594 3.66836 32.1727 3.50238C31.786 3.33595 31.6113 2.90009 31.7754 2.51664Z" fill="#0B1761"/><path d="M145.129 22.9775H146.969V31.9141H145.642V24.5044H145.618L142.138 31.9141H140.962L137.495 24.6548H137.469V31.9141H136.143V22.9775H138.008L141.55 30.3867L145.129 22.9775Z" fill="#0B1761"/><path d="M149.52 22.9775H156.704V24.1293H150.846V26.7201H156.529V27.8718H150.846V30.7628H156.829V31.9141H149.52V22.9775Z" fill="#0B1761"/><path d="M167.94 22.9775H169.78V31.9141H168.453V24.5044H168.429L164.949 31.9141H163.773L160.306 24.6548H160.281V31.9141H158.954V22.9775H160.819L164.361 30.3867L167.94 22.9775Z" fill="#0B1761"/><path d="M177.25 30.7623C178.727 30.7623 179.115 30.0111 179.115 29.2478C179.115 28.5472 178.714 27.8212 177.362 27.8212H173.658V30.7623H177.25ZM177.275 26.6699C178.251 26.6699 178.727 26.1315 178.727 25.418C178.727 24.6042 178.289 24.1288 177.2 24.1288H173.658V26.6699H177.275ZM172.331 22.9771H177.3C179.202 22.9771 180.053 23.8161 180.053 25.2175C180.053 26.3067 179.478 26.8446 178.752 27.1076V27.1325C179.778 27.3706 180.441 28.0465 180.441 29.3352C180.441 30.612 179.553 31.9136 177.612 31.9136H172.331V22.9771Z" fill="#0B1761"/><path d="M182.692 22.9775H189.876V24.1293H184.018V26.7201H189.701V27.8718H184.018V30.7628H190.001V31.9141H182.692V22.9775Z" fill="#0B1761"/><path d="M197.208 26.9702C198.509 26.9702 198.822 26.1812 198.822 25.5559C198.822 24.7044 198.309 24.1288 197.245 24.1288H193.503V26.9702H197.208ZM192.176 22.9771H197.708C199.498 22.9771 200.149 24.2166 200.149 25.3554C200.149 26.4442 199.623 27.2456 198.647 27.5582V27.583C199.436 27.6957 199.899 28.4345 199.949 29.4856C200.024 31.1504 200.074 31.5633 200.374 31.9136H198.972C198.759 31.6635 198.759 31.2878 198.697 30.2115C198.609 28.6092 198.071 28.1214 196.969 28.1214H193.503V31.9136H192.176V22.9771Z" fill="#0B1761"/><path d="M61.9944 24.2042L60.3175 28.1596H63.7089L61.9944 24.2042ZM64.1972 29.3104H59.8168L58.6775 31.9141H57.251L61.2937 22.9775H62.8082L66.8506 31.9141H65.3365L64.1972 29.3104Z" fill="#0B1761"/><path d="M68.4375 22.9775H69.7641V30.7628H75.1961V31.9141H68.4375V22.9775Z" fill="#0B1761"/><path d="M76.9468 22.9775H78.2733V30.7628H83.7054V31.9141H76.9468V22.9775Z" fill="#0B1761"/><path d="M85.5181 22.9771H86.845V31.9136H85.5181V22.9771Z" fill="#0B1761"/><path d="M93.2395 24.2042L91.5626 28.1596H94.954L93.2395 24.2042ZM95.4423 29.3104H91.062L89.9226 31.9141H88.4961L92.5389 22.9775H94.0533L98.0954 31.9141H96.5816L95.4423 29.3104Z" fill="#0B1761"/><path d="M101.035 24.8046H101.009V31.9136H99.6831V22.9771H101.222L106.967 30.086H106.992V22.9771H108.319V31.9136H106.78L101.035 24.8046Z" fill="#0B1761"/><path d="M118.266 26.1938C118.066 24.9552 117.089 23.9037 115.212 23.9037C113.097 23.9037 111.758 25.1175 111.758 27.5584C111.758 29.2481 112.671 30.9874 115.137 30.9874C116.701 30.9874 117.891 30.2366 118.266 28.4968H119.593C119.38 30.4747 117.678 32.1391 115.124 32.1391C112.872 32.1391 110.431 30.8995 110.431 27.4205C110.431 24.8173 112.058 22.7524 115.112 22.7524C116.901 22.7524 119.368 23.5156 119.593 26.1938H118.266Z" fill="#0B1761"/><path d="M121.743 22.9775H128.927V24.1293H123.07V26.7201H128.752V27.8718H123.07V30.7628H129.052V31.9141H121.743V22.9775Z" fill="#0B1761"/><path d="M63.8841 11.2008C63.7337 10.0366 62.6199 9.9111 61.6437 9.9111C60.6427 9.9111 59.9917 10.3621 59.9917 10.9626C59.9917 11.4385 60.3924 11.7014 61.0179 11.8017L64.0593 12.2895C65.6865 12.552 66.9255 13.1654 66.9255 14.7925C66.9255 16.4573 65.7993 17.7966 62.2824 17.7966C60.1044 17.7966 57.2758 17.5208 57.251 14.73H59.9793C60.0048 15.9566 61.231 16.1695 62.2824 16.1695C63.4213 16.1695 64.1972 15.8311 64.1972 15.0555C64.1972 14.3672 63.6465 14.1796 62.6827 14.0288L60.4675 13.6913C58.9155 13.4532 57.4134 12.9907 57.4134 11.1631C57.4134 9.17317 59.0406 8.35938 61.8441 8.35938C63.6837 8.35938 66.4124 8.67248 66.5751 11.2008H63.8841Z" fill="#0B1761"/><path d="M75.246 8.60986H78.5123L74.4074 12.202L78.8254 17.5464H75.5464L72.505 13.6788L71.0909 14.8931V17.5464H68.6626V8.60986H71.0909V12.4522L75.246 8.60986Z" fill="#0B1761"/><path d="M82.9783 14.4296L79.0234 8.60986H81.8769L84.1927 12.5027L86.5079 8.60986H89.3614L85.4065 14.4296V17.5459H82.9783V14.4296Z" fill="#0B1761"/><path d="M92.9884 10.3119H89.6719V8.60986H98.7333V10.3119H95.4167V17.546H92.9884V10.3119Z" fill="#0B1761"/><path d="M100.195 8.60986H108.544V10.3119H102.624V12.1643H108.243V13.7919H102.624V15.8439H108.594V17.5464H100.195V8.60986Z" fill="#0B1761"/><path d="M114.924 10.5372L113.522 14.0793H116.326L114.924 10.5372ZM116.977 15.7064H112.872L112.146 17.5459H109.53L113.46 8.60986H116.389L120.318 17.5459H117.703L116.977 15.7064Z" fill="#0B1761"/><path d="M130.492 8.60986H134.058V17.5464H131.705V10.3873H131.68L128.852 17.5464H126.824L123.996 10.3873H123.971V17.5464H121.618V8.60986H125.185L127.838 15.043L130.492 8.60986Z" fill="#0B1761"/></g><defs><clipPath id="clip0_9729_2911"><rect width="200" height="40" fill="white" transform="translate(0.5 0.304688)"/></clipPath></defs></svg>